<svg xmlns="http://www.w3.org/2000/svg" viewBox="0 0 256 256" focusable="false" color="var(--token-e4afc467-63a1-453b-a567-b51406c562ec, rgb(28, 28, 28))" style="user-select: none; width: 100%; height: 100%; display: inline-block; fill: var(--token-e4afc467-63a1-453b-a567-b51406c562ec, rgb(28, 28, 28)); color: var(--token-e4afc467-63a1-453b-a567-b51406c562ec, rgb(28, 28, 28)); flex-shrink: 0;"><g color="var(--token-e4afc467-63a1-453b-a567-b51406c562ec, rgb(28, 28, 28))" weight="bold"><path d="M128,20A108,108,0,1,0,236,128,108.12,108.12,0,0,0,128,20ZM79.57,196.57a60,60,0,0,1,96.86,0,83.72,83.72,0,0,1-96.86,0ZM100,120a28,28,0,1,1,28,28A28,28,0,0,1,100,120ZM194,179.94a83.48,83.48,0,0,0-29-23.42,52,52,0,1,0-74,0,83.48,83.48,0,0,0-29,23.42,84,84,0,1,1,131.9,0Z"></path></g></svg>