<svg xmlns="http://www.w3.org/2000/svg" width="415" height="193" version="1.2"><defs><linearGradient id="g1" x2="1" gradientTransform="matrix(-73.34 26.93 -22.343 -60.848 155.34 134.59)" gradientUnits="userSpaceOnUse"><stop offset="0" stop-color="#1c1c1c"/><stop offset="1" stop-color="#1f262c" stop-opacity="0"/></linearGradient></defs><style>.s0{fill:#ad2ffb}</style><g id="Layer_1-2"><g id="Layer"><path d="M112 131.3a56.852 56.852 0 0 1-48 26.4h-6.4l76.7-121.9c7.6-12 22.4-15.8 34.3-10.7 0 0-3.1-4.1-7.7-10.1C144.5-6.2 112-4.7 97.7 18L2.4 169.4c-6.4 10.1.9 23.3 12.8 23.3H75c27.6 0 53.6-12.9 70.3-34.9l7.3-9.6-28.3-36.5-12.3 19.6z" class="s0"/><path fill="url(#g1)" d="m152.5 148.1-7.2 9.6c-14.5 19.2-36 31.4-59.5 34.3l-6.7-36.3c13.5-3.7 25.2-12.3 32.9-24.4l12.3-19.7 28.2 36.5z"/><path d="M238.4 192.7h-50.5c-.6 0-1.2-.3-1.5-.7l-62.1-80.3 13.2-21c5.6-8.9 18.4-9.6 24.9-1.2l77.5 100.2c.9 1.2 0 3-1.5 3z" class="s0"/></g><path id="ailawyer" d="M351 52v6.9c-7.4-5.7-16.8-9.1-27.9-9.1-24.4 0-44 20.4-44 45.7 0 25.4 19.6 45.7 44 45.7 11.1 0 20.5-3.3 27.9-9v6.8h19.1V52zm-25.2 71.8c-15.9 0-27.5-12.7-27.5-28.3 0-15.5 11.6-28.3 27.5-28.3 9.6 0 18.7 3.3 25.2 12.6v31.4c-6.5 9.3-15.6 12.6-25.2 12.6zm73.8-91.9c6.7 0 12.2-5 12.2-11.9 0-6.8-5.5-11.8-12.2-11.8-6.8 0-12.2 5-12.2 11.8 0 6.9 5.4 11.9 12.2 11.9zm-9.4 20.2V139h19.1V52zm39-44.3v131.3h19.2V7.8zm103.6 44.3V59c-7.4-5.7-16.8-9.1-27.9-9.1-24.4 0-44 20.4-44 45.7 0 25.4 19.6 45.7 44 45.7 11.1 0 20.5-3.3 27.9-9v6.8h19.1v-87zm-25.2 71.8c-15.9 0-27.5-12.7-27.5-28.3 0-15.5 11.6-28.3 27.5-28.3 9.7 0 18.7 3.3 25.2 12.6v31.4c-6.5 9.3-15.5 12.6-25.2 12.6zm168.6-71.8-18.9 58-20.7-58h-16.5l-20.7 58.1-18.9-58.1h-20.7l31.3 87h16.8l20.5-60.3 20.4 60.3h16.8l31.3-87zm103.6-.1-30 68-32.7-68h-20.6l44.4 88.4-18.3 41.6h20.2l57.3-130zm61.8-2.1c-26.4 0-44.7 20-44.7 45.7 0 25.9 18.5 45.7 45.8 45.7 18.9 0 34.3-9.2 39.8-25h-21.1c-3.5 5.6-10 8.2-18.5 8.2-16.3 0-24.6-10-26.4-23.1h68.2c3.7-29.5-14.2-51.5-43.1-51.5zm.2 16.3c13.5 0 22.8 7.6 23.9 21.8h-48.9c2.3-12.2 10.6-21.8 25-21.8zm73.8-2.2V52.1h-19.2v87h19.2V84.3c7.8-10.1 18.3-15.3 32.2-15.9V50.3c-13.3 0-24.2 5-32.2 13.7z" aria-label="ailawyer" class="s0"/></g></svg>